<?xml version="1.0" encoding="utf-8"?>
<!-- Generator: Adobe Adobe Illustrator 24.2.0, SVG Export Plug-In . SVG Version: 6.00 Build 0)  -->
<svg version="1.1" xmlns="http://www.w3.org/2000/svg" xmlns:xlink="http://www.w3.org/1999/xlink" x="0px" y="0px" width="1000px"
	 height="1000px" viewBox="0 0 1000 1000" style="enable-background:new 0 0 1000 1000;" xml:space="preserve">
<style type="text/css">
	.st0{fill:#181217;}
</style>
<g id="Layer_1">
</g>
<g id="Layer_2">
	<g id="Image_Tracing">
		<path class="st0" d="M826.48,531.23c-9.35,16.64-21.23,30.27-34.75,42.51c-5.14,4.66-11.15,7.98-17.95,9.8
			c-8.54,2.28-18.28-1.94-22.8-9.46c-4.99-8.31-7.42-17.44-9.6-26.7c-3.9-16.55-4.23-33.4-4.15-50.28
			c0.04-7.33,0.04-14.67,0.32-21.99c0.14-3.59,1.03-7.14,1.36-10.73c0.91-9.88,0.99-19.9,2.79-29.6c1.27-6.81,1.09-13.74,2.75-20.48
			c1.52-6.15,1.28-16.97,0.16-24.72c-1.41-1.07-2.64-0.23-3.2,0.84c-3.24,6.14-6.59,12.25-9.35,18.61
			c-2.32,5.35-4.17,10.95-5.73,16.57c-2.36,8.5-4.74,17.05-4.84,25.89c-1.81,3.61-5.36,4.84-8.76,6.76
			c-1.52-0.79-3.22-1.68-4.9-2.55c-0.19-0.65-0.51-1.27-0.52-1.89c-0.09-7.66-0.09-15.31-0.22-22.97
			c-0.08-4.33,0.32-8.82-0.74-12.92c-1.12-4.33-0.34-8.58-0.96-12.81c-0.62-4.22-1.04-8.5-2.07-12.62
			c-1.17-4.7-2.15-9.58-5.67-13.93c-1.74,1.58-3.73,2.86-5.01,4.65c-7.87,10.99-13.85,23.01-18.66,35.61
			c-4.45,11.64-8.07,23.52-10.35,35.82c-1.27,6.86-2.3,7.95-8.85,13.57c-0.98,0-2,0.13-2.97-0.02c-3.05-0.48-4.54-1.75-4.35-4.25
			c0.54-6.91-1.03-13.94,1.16-20.75c-2.04-5.51,0.92-10.87,0.44-16.42c-0.48-5.6,0.33-11.31,0.35-16.97
			c0.06-13.99,0.06-27.99-0.07-41.99c-0.04-4.29-0.54-8.57-0.85-13.14c-1.53,0.18-2.88-0.05-3.26,0.45
			c-9.33,12.29-18.98,24.37-27.64,37.12c-6.08,8.95-12.52,17.62-18.93,26.3c-4.51,6.1-10.54,11.1-16.11,16.36
			c-4.03,3.8-9.86,3.09-14.61,5.17c-4.26-3.21-11.48-1.88-13.39-8.72c-4.06-4.04-5.05-9.92-8.84-14.68
			c-2.22,1.28-4.57,2.41-6.66,3.9c-6.83,4.85-14.6,7.39-22.56,9.51c-0.94,0.25-2.06,0.31-2.98,0.04
			c-7.18-2.15-13.88-4.6-19.21-10.73c-7-8.05-9.42-17.87-12.78-27.38c-1.3-3.68-1.49-7.73-2.4-11.56c-0.6-2.49-1.59-4.89-2.31-7.03
			c-2.49-0.54-2.57,1.04-3.13,2.07c-7.81,14.4-16.89,28.02-25.52,41.92c-7.99,12.87-16.05,25.71-23.17,39.1
			c-2.05,3.85-3.67,7.34-1.7,12.13c1.29,3.14,0.34,7.2,0.34,10.86c0.01,9.99,0.2,19.98-0.11,29.96c-0.18,5.89-1,11.78-1.88,17.62
			c-0.28,1.85-1.49,3.68-2.65,5.25c-1.38,1.86-3.17,3.35-3.14,6.02c0.01,0.69-1.02,1.53-1.74,2.06c-1.85,1.36-3.79,2.59-5.56,3.78
			c-2.18,0-4.17,0-6.27,0c-3.58-2.43-6.93-5.24-8.1-9.68c-1.42-5.39-3.16-10.86-2.61-16.47c0.58-5.83,1.78-11.62,2.99-17.36
			c2.31-11,6.81-21.31,11.08-31.61c1.91-4.62,2.25-8.97,1.37-13.5c-1.36-7.08-3.18-14.07-4.84-21.09c-1.58-6.67-3.34-13.3-4.74-20
			c-0.62-2.96-1.96-5.31-3.68-7.75c-5.76,6.47-9.85,13.69-16.03,19.22c-1.66,1.48-2.6,3.74-4.04,5.51
			c-1.25,1.54-2.48,3.56-4.16,4.19c-3.34,1.26-5.42,3.82-7.57,6.23c-6.66,7.49-15.73,10.59-24.65,13.98
			c-1.1,0.42-2.58,0.17-3.8-0.13c-13.86-3.4-16.34-7.32-22.39-17.25c-1.03-1.68-1.62-3.63-2.68-5.28c-0.66-1.02-1.83-1.71-3.1-2.84
			c-2.67,3.36-5.25,6.31-7.52,9.48c-9.35,13.08-18.93,26.02-27.39,39.71c-1.68,2.73-3.68,5.79-0.84,9.11
			c1.98,13.66,3.99,27.31,8.08,40.55c-0.43,11.01,3.81,21.32,4.86,32.16c0.95,9.75,2.39,19.53,4.75,29.17
			c1.77,7.28,1.62,15.02,2.32,22.56c0.21,2.32,0.02,4.76,0.67,6.94c1.36,4.52,1.3,9.13,1.62,13.73c0.67,9.56,1.49,19.11,2.12,28.68
			c0.2,2.97,0.28,6.01-0.12,8.95c-0.39,2.85,1.31,5.09,1.52,7.56c0.17,2.04-1.83,4.26-0.31,6.5c0.95,1.41,0.36,2.35-0.37,3.54
			c-0.48,0.78-1,2.13-0.65,2.74c2.58,4.46,1.27,8.56,0.05,13.17c-1.16,4.36-0.42,9.22-0.53,13.86c-0.28,11.08-3.45,21.24-9.7,30.43
			c-4.22,6.22-9.78,9.53-17.54,9.16c-5.6-0.27-10.29-2.67-14.3-6.02c-12.14-10.15-20.43-23.22-26.61-37.6
			c-5.06-11.77-8.71-24.05-11.34-36.58c-1.28-6.08-1.86-12.32-2.55-18.52c-0.88-7.88,0.21-15.91-1.83-23.71
			c-0.21-0.81,0.44-1.81,0.54-2.74c0.33-2.96,0.82-5.93,0.83-8.9c0.06-14.6,2.86-28.78,5.74-43.02c2.09-10.31,5.36-20.2,8.48-30.17
			c1.55-4.95,3.53-9.79,5.56-14.57c4.87-11.46,9.21-23.22,16.41-33.5c4.64-6.62,4.5-13.08,2.29-20.66
			c-5.87-20.09-11.23-40.34-18.19-60.1c-2.39-6.79-5.02-13.5-7.61-20.22c-0.44-1.15-1.27-2.16-1.97-3.32
			c-4.57,4.68-5.54,10.71-7.87,16.04c-2.38,5.43-4.91,10.91-4.19,17.13c0.23,1.96-1,3.2-2.43,3.99c-1.52,0.83-3.15,0.5-4.59-0.65
			c-2.19-1.75-3.25-3.75-3.38-6.75c-0.22-5.06,1-9.86,1.92-14.69c2.09-11.04,5.33-21.69,11.56-30.99
			c5.46-2.31,10.73-3.93,16.57-3.35c2.85,0.28,5.28,0.99,6.85,3.35c2.56,3.83,5.56,7.53,7.23,11.74
			c5.9,14.92,10.43,30.31,14.27,45.89c2.35,9.55,4.72,19.1,7.21,29.17c1.41-0.32,2.94-0.22,3.65-0.93c1.37-1.38,2.2-3.28,3.39-4.85
			c6.55-8.65,13.11-17.29,19.74-25.88c3.02-3.91,6.14-7.75,9.34-11.52c1.59-1.87,2.63-3.82,2.45-6.31
			c-0.22-2.99-0.05-6.06-0.72-8.94c-2.75-11.85-0.55-23.83-1.31-35.73c2.82-12.85,4.94-25.84,9.39-38.34
			c3.76-10.58,9.65-19.42,18.13-26.67c5.52-4.72,11.83-7.15,19.09-7.02c6.15,0.1,10.73,2.43,13.32,8.48
			c1.47,3.42,2.45,6.76,2.55,10.45c0.2,7.3,0.32,14.63-2.6,21.47c-2.69,6.29-3.98,13.04-8.03,18.96
			c-4.05,5.92-6.88,12.7-11.15,18.56c-6.59,9.03-13.27,18-20.07,27.21c-0.71,8.99,1.97,21.95,6.14,29.27
			c2.19,3.84,5.6,6.48,8.63,9.29c7.1,0.06,12.13-3.85,17.02-7.55c5.19-3.91,10.17-8.2,14.7-12.85c5.07-5.2,9.57-10.95,14.25-16.52
			c1.25-1.49,2.07-3.38,3.4-4.77c5.04-5.27,6.08-11.55,4.92-18.42c-0.71-4.23-1.23-8.53-2.43-12.63c-2.05-7.02-2.12-14.32-3-21.45
			c-1.14-9.19-0.4-18.62-0.46-27.94c-0.01-1,0.09-2,0.03-3c-0.62-11.42,2.55-22.13,5.72-32.92c1.64-5.57,4.7-10.16,8.14-14.47
			c5.62-7.04,13.6-9.15,22.24-8.61c3.66,0.23,7.14,2.07,9.12,5.24c2.39,3.84,5.07,7.65,5.25,12.54c0.1,2.63,1.03,5.22,1.17,7.85
			c0.22,4.22,0.23,8.46,0.06,12.68c-0.09,2.29-1.03,4.55-1.1,6.84c-0.36,10.98-4.14,21.04-7.87,31.17
			c-4.68,12.7-11.08,24.57-17.4,36.46c-2.86,5.37-3.52,10.46-1.98,16.16c1.19,4.42,2.02,8.93,3.21,13.35
			c2.74,10.17,4.59,20.52,6.47,30.87c0.12,0.64,0.51,1.22,0.94,2.22c1.1-0.8,2.46-1.32,3.08-2.31c5.07-8.07,9.98-16.23,14.98-24.35
			c6.71-10.9,13.68-21.65,20.12-32.71c5.98-10.24,11.46-20.77,17.07-31.23c1.39-2.58,0.11-4.32-2.92-4.65
			c-6.4-0.7-16.94,1.03-29.76,5.59c-0.6,0.21-1.25,0.29-1.87,0.44c-4.46-5.27-4.14-7.75,1.32-10.79c6.17-3.43,12.87-4.86,19.81-5.64
			c4.53-0.51,9.4,0.23,13.64-3.24c0.17-0.58,0.75-1.53,0.66-2.42c-1.04-10.68,2.06-21.06,2.22-31.68c0.1-6.5,1.76-12.99,2.82-19.47
			c1.01-6.2,1.86-12.44,3.28-18.54c2.16-9.26,3.93-18.64,7.43-27.56c2.99-7.61,5.42-15.43,9.97-22.37c2.4-3.67,5.61-6.3,9.49-8.8
			c2.29,0.64,4.87,1.18,7.3,2.1c3.66,1.39,6.05,3.85,6.08,8.12c0.07,8.94,0.15,17.81-1.49,26.72c-1.49,8.09-3.01,16.17-4.55,24.25
			c-1.48,7.74-3.5,15.31-5.51,22.91c-3.61,13.67-8.05,27.04-13.87,39.94c-0.94,2.07-1.32,4.4-1.95,6.61
			c1.16,2.38,3.38,1.62,5.2,1.65c7.97,0.12,15.75,1.33,23.35,3.73c0.93,0.29,2.07,0.37,2.72,0.97c0.94,0.86,2.05,2.09,2.08,3.2
			c0.03,0.92-1.21,2.19-2.2,2.77c-2.61,1.54-5.34,1.88-8.47,1.08c-8.42-2.14-17.96-2.17-26.96-0.49c-0.21,1.05-0.7,2.3-0.65,3.53
			c0.23,5.98,0.54,11.95,0.94,17.92c0.13,1.93,0.91,3.83,0.93,5.75c0.11,11.13,3.76,21.38,7.81,31.5
			c2.07,5.18,6.66,10.71,12.13,15.59c5.62,1.31,10.85,0.25,15.86-3.03c4.95-3.24,10.4-5.78,14.22-11.45
			c-0.34-4.16-0.25-8.89-1.2-13.39c-1.12-5.28-1.32-10.3,0.14-15.54c1.5-5.42,0.92-11.14,1.93-16.72c1.53-8.48,3.85-16.7,7.09-24.55
			c2.76-6.68,7.01-12.73,12.72-17.48c5.03-4.18,10.91-4.63,16.88-3.09c5.47,1.41,8.02,5.84,8.5,12.91
			c0.52,7.68-0.87,15.24-2.54,22.56c-1.36,5.99-3.66,11.9-6.35,17.6c-5.65,11.95-12.07,23.42-20.44,33.64
			c-2.75,3.36-3.11,6.29-1.73,10.03c1.36,3.66,2.23,7.53,3.85,11.06c1.22,2.65,3.28,4.91,5.14,7.59c2.52,0,5.12,0,7.87,0
			c7.97-6.12,13.45-14.56,18.82-22.79c12.56-19.26,26-37.88,39.39-56.54c2.49-3.48,5.55-6.94,9.12-9.14
			c3.65-2.25,7.96-4.93,12.8-2.01c0.81,0.49,1.93,0.47,3.47,0.81c3.13,5.12,4.38,11.16,4.47,17.41c0.16,12,0.01,24,0.08,36
			c0.01,1.89,0.52,3.77,1,6.96c1.49-1.98,2.34-2.84,2.88-3.86c3.25-6.1,7.09-11.82,10.74-17.67c5.9-9.45,13.85-13.76,24.78-13.01
			c1.31,0.09,2.62,0.13,4.23,0.2c1.82,1.66,3.92,3.32,5.71,5.26c2.71,2.95,4.42,6.32,4.88,10.5c0.49,4.49,1.78,8.89,2.78,13.55
			c3.58-2.04,4.43-5.46,5.67-8.31c2.53-5.85,6.71-10.54,10.2-15.69c2.29-3.38,5.92-5.26,10.14-5.58c1.99-0.15,3.99-0.3,5.97-0.22
			c6,0.25,11.08,4.57,10.93,10.55c-0.19,7.56,1.41,15.27-1.27,22.71c-0.22,0.61-0.28,1.32-0.25,1.98c0.5,9.66-2.35,19.02-2.5,28.65
			c-0.06,4.24-0.95,8.48-1.65,12.69c-0.65,3.9,0.56,7.98-1.25,11.77c-0.41,0.85-0.31,1.96-0.4,2.95
			c-0.64,7.23-1.23,14.46-2.08,21.68c-0.85,7.24-0.53,14.64-0.54,21.97c-0.01,7.33,0.02,14.66,0.37,21.98
			c0.19,3.9,1.04,7.77,1.67,11.64c0.63,3.89,1.32,7.77,2.03,11.65c0.71,3.84,0.98,7.86,2.36,11.45c1.39,3.63,3.83,6.88,5.94,10.21
			c3.48,5.5,7.52,6.25,12.03,2.11c6.37-5.84,12.36-12.03,17.01-19.41c5.76-9.14,11.95-18.03,17.28-27.41
			c5.02-8.85,8.69-18.39,11.37-28.26c1.03-3.79,3.08-7.41,3.48-11.23c0.85-8.18,3.78-16.21,1.91-25.06
			c-0.37-0.3-1.06-0.96-1.84-1.48c-5.08-3.42-5.34-6.63-0.37-9.65c2.45-1.5,5.39-2.66,8.22-2.95c2.93-0.3,5.63,1.42,7.78,3.43
			c2.67,7.03,3.77,14.34,2.61,21.49c-1.37,8.39-2.05,16.91-4.21,25.19C837.9,506.86,833,518.97,826.48,531.23z M282.9,677.88
			c-0.26-6.32-0.27-12.66-0.85-18.95c-0.84-9.26-2.04-18.48-3.17-27.71c-1.54-12.54-2.66-25.17-4.86-37.6
			c-4.11-23.21-8.78-46.31-13.42-69.42c-1.14-5.69-3.04-11.23-4.73-17.34c-1.16,1.26-1.99,1.88-2.46,2.71
			c-4.57,8.09-7.67,16.82-11.01,25.45c-6.74,17.41-10.98,35.48-14.06,53.83c-1.43,8.51-2.79,17.09-3.28,25.69
			c-0.53,9.22-0.59,18.47-0.35,27.75c0.41,15.39,3.3,30.29,7.15,45.03c4.31,16.5,11.16,31.87,21.01,45.99
			c3.56,5.09,7.4,9.07,12.93,11.72c9.01,4.32,12.03,3.97,14.78-6.75c2.24-8.72,2.7-17.7,3.35-26.63
			C284.72,701,284.33,690.36,282.9,677.88z M424.64,306.04c-0.12-2.65-0.04-5.34-0.41-7.96c-0.84-5.91-1.86-11.82-4.92-17.09
			c-0.93-1.6-1.63-3.67-4.35-3.51c-4.08,3.94-6.24,9.14-8.35,14.38c-4.17,10.34-4.75,21.34-5.59,32.21
			c-1.02,13.28,1.04,26.5,2.16,39.72c0.25,2.93,1.18,5.81,1.84,8.95C414.28,359.94,424.69,331.29,424.64,306.04z M342.48,365.79
			c2.26-5.53,4.75-10.98,6.72-16.62c3-8.61,4.11-17.39,1.45-26.39c-1.19-4-3.1-7.28-7.03-9.67c-1.3,1.09-2.67,2-3.74,3.18
			c-5.26,5.73-8.76,12.52-11.38,19.77c-7,19.38-8.66,39.52-8.32,59.92c0.01,0.88,0.52,1.76,1.02,3.38
			C329.46,389.02,335.83,378.2,342.48,365.79z M572.72,354.31c2.27-6.98,2.84-14.23,3.25-21.48c0.18-3.18-0.33-6.36-2.53-9.02
			c-12.84,11.95-20.66,40.37-17.89,64.99c0.9-0.51,2.01-0.78,2.46-1.47C564.38,377.58,569.39,367.19,572.72,354.31z M510.25,230.46
			c-0.06-0.99-0.11-1.98-0.17-2.98c-0.02-0.33-0.04-0.66-0.08-0.99c0-0.01-0.28,0.02-0.63,0.04c-0.79,1.68-1.81,3.39-2.43,5.23
			c-6.92,20.78-11.49,42.05-13.08,63.93c-0.07,0.98,0.58,2.01,1.34,4.45C502.87,276.97,507.14,254.69,510.25,230.46z"/>
		<path class="st0" d="M517.72,629.47c2.88,9.94,6.86,18.53,12.42,26.35c0.38,0.54,0.67,1.14,1.08,1.65
			c1.94,2.43,4.34,3.01,7.03,1.67c3.95-1.97,6.89-4.84,9.3-8.66c5.13-8.13,8.76-16.87,11.71-25.92c1.53-4.67,2.55-9.51,3.6-14.32
			c0.34-1.53,0.05-3.19,0.05-5.07c-3.77-1.75-7.46-0.78-10.7,0.36c-6.49,2.28-15.76-2.85-18.78-7.9
			c-3.16-5.29-4.23-10.92-4.26-17.04c-0.03-5.61,2.02-10.4,4.9-14.77c3.47-5.27,8.87-8.13,15.18-8.02
			c10.63,0.19,19.26,4.29,24.18,14.3c1.45,2.96,2.6,6.06,4.1,9.62c1.4-0.23,3.29,0.02,4.37-0.8c5.61-4.29,11.97-6.88,18.46-8.9
			c2.05,0.47,3.94,1.05,5.88,1.33c6.17,0.88,10.55,3.89,14.45,9c6.66,8.74,10.08,18.86,14.33,28.66c1.88,1.21,3.75,1.15,5.56-0.05
			c2.19-1.45,4.38-2.92,6.51-4.46c7.02-5.08,14.61-8.83,22.94-11.45c6.2-1.95,11.83-0.63,17.33,1.29c6.9,2.4,13.08,6.3,17.41,12.5
			c1.44,2.06,3.27,2.76,5.8,3.15c8.52,1.31,16.34,3.99,23.34,9.72c5.16,4.22,6.99,9.44,7.58,15.14c0.96,9.29-0.18,18.25-6.51,26.06
			c-3.48,4.3-4.01,9.27-1.11,14.81c4.44,8.48,5.36,18.19,8,27.3c2.1,7.26,3.9,14.62,6.25,21.79c1.86,5.68,4.65,10.9,9.18,15.14
			c2.62,2.46,5.26,4.07,8.85,3.57c4.91-0.69,9.95-1,14.68-2.37c15.37-4.45,29.31-11.79,41.64-22.06c3.56-2.96,7.39-5.69,10.51-9.06
			c5.6-6.04,10.83-12.44,16.08-18.8c4.02-4.87,7.95-9.8,13.75-12.71c0.81-0.41,1.76-0.53,2.7-0.8c1.68,3.2,0.56,6.09-0.65,8.71
			c-1.63,3.57-3.53,7-5.72,10.35c-9.94,15.22-22.55,27.57-37.89,37.23c-10.06,6.34-20.65,11.45-32.11,14.85
			c-8.3,2.47-16.7,3.76-25.32,3.69c-12.06-0.09-20.64-6.21-26.78-16.07c-5.29-8.51-7.85-18.07-9.73-27.81
			c-1.62-8.41-3.16-16.83-4.88-26.07c-1.81,1.24-3.18,1.93-4.24,2.95c-3.56,3.45-7.22,6.69-11.49,9.32
			c-11.24,6.9-22.62,1.08-26.33-7.79c-2.89-6.91-3.97-13.58-1.2-20.95c2.36-6.29,5.22-12.39,9.68-17.07
			c8.41-8.82,16.24-10.46,26.37-3.62c3.87,2.62,7.2,5.55,9.72,10.59c1.4-1.98,2.52-3.04,2.98-4.32c1.32-3.67,2.71-7.38,3.44-11.19
			c0.55-2.9-0.13-6,0.18-8.97c0.35-3.33-1.84-5.58-3.01-8.23c-1.22-2.76-4.24-2.59-6.64-3.57c-2.93-1.2-5.6-1.8-9.11-0.89
			c-1.11,3.43-2.29,7.1-3.55,11c-4.56,1.69-8.25,5.74-14.47,3.58c-5.78-2.01-9.89-4.75-11.39-10.79c3.04-5.07,7.87-7.84,13.81-9.99
			c-4.04-5.56-7.9-9.61-14.94-6.5c-10.18-0.3-17.28,6.09-24.44,11.82c-5.17,4.14-9.47,9.36-14.26,14c-2.61,2.53-3.96,5.32-2.75,8.94
			c1.73,5.15,1.01,10.52,1.25,15.78c0.26,5.62-0.15,11.27-0.3,16.91c-0.28,10.32-2.65,20.27-5.69,30.06
			c-2.31,7.47-5.99,14.07-13.02,18.29c-4.34,0.67-8.5,0.19-12.17-2.56c-3.85-2.88-6.5-6.62-7.77-11.29
			c-0.87-3.18-1.53-6.35-1.88-9.68c-1.8-17.33,2.42-33.59,9.26-49.13c4.38-9.94,10.7-18.94,17.36-27.59
			c0.59-0.77,1.04-1.65,1.68-2.7c-2.28-8.82-4.68-17.62-8.89-25.91c-3.19-6.28-6.92-11.96-12.7-16.44
			c-7.51-2.42-13.06,2.26-18.87,5.85c-1.67,1.03-2.85,3.01-4.59,3.72c-4.8,1.96-5.69,5.98-6.2,10.35c-0.04,0.33,0.01,0.67,0,1
			c-0.24,18.17-5.53,34.91-14.25,50.71c-4.22,7.65-9.45,14.23-17.69,17.81c-2.95,0.13-5.94,0.41-8.93,0.38
			c-8.13-0.07-13.8-3.8-18.63-10.53c-7.85-10.96-11.63-23.46-15.2-36.01c-2.42-8.48-3.64-17.32-4.78-26.15
			c-0.79-6.15-0.79-12.43-2.05-19.21c-1.58,0.81-2.9,1.12-3.66,1.95c-6.04,6.57-12,13.2-17.88,19.91c-0.8,0.91-1.08,2.33-1.45,3.56
			c-1.33,4.36-2.67,8.72-3.87,13.12c-2.8,10.22-8.61,18.41-16.58,25.24c-3.17,2.72-6.64,4.11-10.88,3.79
			c-2.97-0.23-5.96-0.04-9.33-0.04c-0.53,1.72-1.32,3.21-1.4,4.73c-0.53,9.61-2.98,18.64-7.52,27.13
			c-3.36,6.28-8.3,10.06-15.53,10.55c-1,0.07-2.07-0.08-2.98,0.25c-5.36,1.96-10.2,0.05-14.61-2.48c-4.23-2.43-8.59-4.85-11.91-8.66
			c-1.96-2.26-4.17-4.31-6.36-6.35c-1.67-1.55-3.6-1.26-5.7-0.46c-1.5,4.35-1.45,9.02-2.65,13.49c-1.42,5.33-5.12,9.07-7.28,13.79
			c-0.47,1.03-1.95,1.69-3.09,2.3c-6.13,3.26-15.28,2.35-20.33-2.19c-3.43-3.09-6.16-6.48-7.58-11.26
			c-1.62-5.43-2.97-10.74-2.85-16.39c0.04-1.66,0.24-3.34,0.09-4.99c-1.18-12.85,2.55-24.91,6.17-36.91
			c1.89-6.25,4.28-12.49,10.02-16.78c-1.64-6.16-3.15-12.14-4.83-18.07c-2.67-9.46-4.94-18.97-5.54-28.83
			c-0.36-5.92-2.25-11.67-1.91-17.69c0.24-4.18,1.06-5.03,6.32-5.43c0.33-0.03,0.67,0,1.08,0c1.35,2.15,3.04,4.09,3.01,6.98
			c-0.04,4.3,0.75,8.48,1.74,12.71c0.88,3.77-0.06,7.96,2.19,11.55c-0.44,7.42,2.4,14.21,4.08,21.21c0.84,3.51,1.85,6.98,2.87,10.74
			c2.42,0.9,4.81,1.78,7.6,2.82c0.52-1.68,1.28-2.91,1.21-4.08c-0.38-6.25,0.46-12.6-1.82-18.73c-0.65-1.75,0.11-3.98-0.08-5.96
			c-0.35-3.61-0.92-7.2-1.43-10.8c-0.14-0.96-0.61-1.91-0.55-2.84c0.48-8.68-1.99-17.03-3.04-25.52c-0.99-8.07-3.35-15.97-5.1-23.94
			c-0.52-2.34-1.31-4.46-3.97-5.12c-2.32,1.09-3.75,2.74-3.74,5.39c0.01,2.67-0.05,5.33,0,8c0.07,4.04-1.89,7.44-3.45,10.96
			c-0.19,0.44-1.07,0.57-2.1,1.09c-3.1-8.52-4.23-16.83-0.96-25.61c0.92-2.48,1.58-5.22,3.45-6.82c2.22-1.89,5.28-2.58,8.87-1.82
			c2.66,3.2,6.93,5.43,8.68,10.1c2.3,6.11,4.99,12.05,5.66,18.68c0.6,5.86,1.5,11.7,3.44,17.31c0.21,0.6,0.36,1.25,0.39,1.89
			c0.19,4.27-0.02,8.38,1.67,12.69c1.49,3.79,0.31,8.54,2.34,12.53c-0.67,6.97,3.18,13.51,1.95,20.53
			c-0.11,0.64-0.05,1.35,0.08,1.99c1.7,8.14,2.12,16.36,2.04,24.67c-0.03,2.85,1.51,5.67,1.84,8.56c0.34,2.96,0.1,5.99,0.04,8.99
			c-0.02,1.3,0.24,2.95-0.43,3.82c-3.25,4.2-0.66,7.8,1.45,10.85c2.97,4.31,5.72,8.85,9.83,12.35c3.29,2.8,6.05,6.21,9.27,9.1
			c1.94,1.74,4.23,3.15,6.51,4.46c2.92,1.68,5.42,1.1,8.13-1.16c4.52-3.77,7.08-8.59,8.79-13.97c3.66-11.46,5.2-23.21,4.34-35.24
			c-0.12-1.63-0.36-3.32-0.91-4.85c-2.07-5.79-1.77-11.71-1.2-17.65c0.24-2.52,2.01-3.78,4.83-3.83c2.65-0.05,5.27-0.14,7.61,1.63
			c0.42,0.32,2.03-0.29,2.53-0.92c0.47-0.59,0.5-1.89,0.19-2.67c-1.04-2.7-4.31-4.43-3.41-7.98c-3.56-8.39-1.13-16.1,2.43-23.82
			c3.31-7.16,9.08-11.22,16.11-13.94c0.59-0.23,1.31-0.45,1.9-0.33c8.5,1.72,16.63,3.43,21.14,12.63c2.6,5.31,2.91,10.76,4.03,16.81
			c1.37-0.75,2.6-1.13,3.4-1.93c5.21-5.16,10.26-10.47,15.5-15.6c2.53-2.47,3.84-5.12,3.76-8.79c-0.41-17.94,3.45-35.3,7.06-52.74
			c2.76-13.33,6.96-26.02,13.13-38.1c4.95-9.69,4.96-9.69,14.22-18.08c1.99,0,4.28,0,7.31,0c0.7,0.57,2.04,1.53,3.22,2.67
			c1.19,1.15,2.22,2.46,3.33,3.72c0,2.11-0.07,4.09,0.01,6.06c0.25,6.3-0.34,12.44-1.87,18.62c-2.51,10.13-4.13,20.47-8.01,30.24
			c-0.84,2.11-1.39,4.35-2.39,6.38c-3.6,7.33-6.26,15.08-9.77,22.43c-3.1,6.48-6.85,12.76-12.18,17.72c-3,2.8-3.94,5.91-3.91,9.74
			c0.08,10.61,0.72,21.22,2.46,31.63C511.84,607.86,512.76,618.78,517.72,629.47z M537.22,459.69c-0.28-1.47-0.56-2.93-0.87-4.56
			c-3.26,1.26-4.55,3.57-5.96,5.82c-4.09,6.51-6.99,13.57-9.61,20.73c-5.82,15.9-9.19,32.41-11.6,49.11
			c-0.7,4.89-0.36,9.94-0.47,14.92c-0.01,0.32,0.07,0.73,0.28,0.94c0.14,0.15,0.56,0.03,1.42,0.03c0.61-0.63,1.71-1.42,2.35-2.48
			c1.53-2.55,3.06-5.13,4.2-7.87c3.69-8.87,7.39-17.74,10.76-26.73c5.49-14.65,8.25-29.95,10.16-45.42
			C537.99,463.23,537.48,462.22,537.22,459.69z M718.89,669.99c-2.22-6.9-4.02-14.05-11.12-18.33c-7.09,1.68-11.95,6.01-15.64,12.32
			c-2.76,4.72-3.42,9.88-4.81,14.94c-1.28,4.67,0.73,8.38,2.41,12.24c0.7,1.6,2.58,2.08,4.29,1.69c1.59-0.36,3.16-0.95,4.61-1.69
			C707.39,686.69,713.93,679.89,718.89,669.99z M352.99,670.52c1.04-4.84,2.28-9.64,3.07-14.52c1.03-6.29,1-12.41-3.14-17.99
			c-1.94-2.61-2.93-5.9-4.46-8.83c-0.37-0.71-1.16-1.21-1.68-1.72c-0.67,0.38-1.09,0.48-1.18,0.7c-6.18,15.55-8.75,31.67-6.93,48.33
			c0.49,4.47,1.07,9.21,4.8,12.89C348.94,684.75,351.13,678.62,352.99,670.52z M549.39,600.2c5.36-1.56,10.92-2.7,15.17-7.4
			c-0.16-2.82,0.05-5.85-0.56-8.71c-1.23-5.79-2.45-11.68-6.89-16.16c-3.2-3.23-6.24-3.69-9.58-0.71c-2.16,1.94-4.26,4.3-5.44,6.9
			c-2.99,6.59-2.77,13.49-0.35,20.25C542.8,597.29,544.77,599.51,549.39,600.2z M616.62,709.37c0.5,1.11,1.01,2.21,1.51,3.32
			c1.07-0.57,2.67-0.87,3.12-1.76c2.53-5.01,5.14-10.04,7.07-15.3c4.63-12.64,4.46-26.03,5.42-39.21c0.15-2.12-1.07-4.34-1.82-7.12
			C621.57,667.85,614.44,686.51,616.62,709.37z M442.95,597.44c1.46,1.69,2.91,3.39,4.33,5.04c2.74-0.67,4.99-1.1,7.16-1.78
			c3.48-1.1,5.28-3.4,5.62-7.22c0.68-7.66,0.18-15.2-1.79-22.58c-0.74-2.75-1.48-5.85-4.53-7.32
			C442.01,571.03,438.31,581.62,442.95,597.44z M433.6,627.88c0.08,1.65-0.09,3.37,0.3,4.94c0.59,2.39,2.23,4.04,4.74,4.45
			c2.12,0.35,3.91-0.49,5.22-2.18c1.21-1.56,2.49-3.1,3.43-4.82c2.52-4.58,5.04-9.18,7.21-13.93c1-2.19,1.19-4.76,1.88-7.74
			c-4.33,0-8.04,0.55-11.49-0.15c-3.45-0.7-6.64-2.68-9.96-4.06c-0.79-0.33-3.01,1.15-3,2.05c0.03,1.97-0.27,4.11,0.39,5.88
			C434,616.83,433.52,621.41,433.6,627.88z"/>
		<path class="st0" d="M199.26,307.2c0.09-7.75,2.49-13.68,6.98-19.25c2.67-0.16,5.63-0.64,8.54-0.42c2.58,0.2,5.21,0.92,7.63,1.89
			c2.64,1.06,4.13,3.25,3.95,6.29c-0.4,6.91-0.82,13.76-5.59,19.47c-1.23,1.47-2.55,3.51-2.5,5.26c0.12,5.01-3.84,5.08-6.7,5.61
			c-5.85,1.09-11.93-4.02-12.43-9.97C198.92,313.45,199.14,310.78,199.26,307.2z"/>
	</g>
</g>
</svg>
